inDegrees=no
num_controls=7
num_derivatives=13
num_iterations=206
num_multipliers=7
num_parameters=0
num_slacks=7
num_states=26
objective=6.004248
objective_accelerations=0.487984
objective_balance=0.035280
objective_effort=0.463978
objective_height=4.924649
objective_ligament=0.092358
solver_duration=1807.581126
status=Solve_Succeeded
success=true
DataType=double
version=3
OpenSimVersion=4.4-2022-07-23-0e9fedc
endheader
time	/jointset/ground_pelvis/pelvis_tilt/value	/jointset/ground_pelvis/pelvis_tx/value	/jointset/ground_pelvis/pelvis_ty/value	/jointset/hip_r/hip_flexion_r/value	/jointset/hip_r/hip_adduction_r/value	/jointset/hip_r/hip_rotation_r/value	/jointset/back/lumbar_extension/value	/jointset/patellofemoral_r/patellar_flexion_r/value	/jointset/knee_r/knee_flexion_r/value	/jointset/knee_r/knee_adduction_r/value	/jointset/knee_r/knee_rotation_r/value	/jointset/ankle_r/ankle_angle_r/value	/jointset/subtalar_r/subtalar_angle_r/value	/jointset/ground_pelvis/pelvis_tilt/speed	/jointset/ground_pelvis/pelvis_tx/speed	/jointset/ground_pelvis/pelvis_ty/speed	/jointset/hip_r/hip_flexion_r/speed	/jointset/hip_r/hip_adduction_r/speed	/jointset/hip_r/hip_rotation_r/speed	/jointset/back/lumbar_extension/speed	/jointset/patellofemoral_r/patellar_flexion_r/speed	/jointset/knee_r/knee_flexion_r/speed	/jointset/knee_r/knee_adduction_r/speed	/jointset/knee_r/knee_rotation_r/speed	/jointset/ankle_r/ankle_angle_r/speed	/jointset/subtalar_r/subtalar_angle_r/speed	/forceset/tau_hip_flexion_r	/forceset/tau_hip_adduction_r	/forceset/tau_hip_rotation_r	/forceset/tau_knee_flexion_r	/forceset/tau_ankle_angle_r	/forceset/tau_subtalar_angle_r	/forceset/tau_lumbar_extension	lambda_cid13_p0	lambda_cid14_p0	lambda_cid14_p1	lambda_cid14_p2	lambda_cid14_p3	lambda_cid14_p4	lambda_cid14_p5	/jointset/ground_pelvis/pelvis_tilt/accel	/jointset/ground_pelvis/pelvis_tx/accel	/jointset/ground_pelvis/pelvis_ty/accel	/jointset/hip_r/hip_flexion_r/accel	/jointset/hip_r/hip_adduction_r/accel	/jointset/hip_r/hip_rotation_r/accel	/jointset/back/lumbar_extension/accel	/jointset/patellofemoral_r/patellar_flexion_r/accel	/jointset/knee_r/knee_flexion_r/accel	/jointset/knee_r/knee_adduction_r/accel	/jointset/knee_r/knee_rotation_r/accel	/jointset/ankle_r/ankle_angle_r/accel	/jointset/subtalar_r/subtalar_angle_r/accel	gamma_cid13_p0	gamma_cid14_p0	gamma_cid14_p1	gamma_cid14_p2	gamma_cid14_p3	gamma_cid14_p4	gamma_cid14_p5
1.5	-0.1382237660662135	0.04795538320627734	0.8591156125109035	0.7435560801467119	-0.22031598444589	-0.1475023831654225	-0.281937143019007	0.6883922885644651	0.688392288564453	0.01379049260913265	0.1745306559372141	0.2581254508453522	0.06837281438854212	0.3080447133887138	0.1484293842642211	0.3795450041412102	-1.662644547042839	0.00580294673072946	-0.2378055835772456	0.6995508375956015	-1.876378228235386	-1.876378228235346	0.3647452555776544	-8.14922588838135e-06	-0.6218845896914148	-0.1787172995062945	-0.08340054136891747	-0.0213011711648279	0.009019262731212336	-0.3273186644023556	0.0640207348887248	-0.008009465127730526	0.1336021889204304	-31.98850992177251	-20.62315765317482	-3.276522607280311	-3.37297455217609	2.363681999314138	-655.6820325061732	60.5915406971375	0.1652470111526366	0.3306732094581822	-0.5393698688452984	-0.8063768959132583	-0.1130280407666617	-0.5877519911447747	1.260473015107372	-0.9839466496924214	-0.9839466496924218	0.44268996418091	-0.07532709950751179	-0.4936120897595066	-0.131949216635918	4.422571609607449e-08	-3.198267062074465e-07	-2.481617066299162e-06	-2.508364376280802e-06	4.697372291375902e-07	-3.098454816221795e-07	-3.278839311469797e-07
1.51	-0.1351357526853707	0.04945598546436138	0.8628832498551015	0.7268920158270022	-0.2202629240033745	-0.1499152041290844	-0.2748794076156035	0.669582018852285	0.6695820188523488	0.01745553356415046	0.1745305149557269	0.2518830666060525	0.06658043151566091	0.3095123028119718	0.1516670789150526	0.373905113500551	-1.669937497010263	0.004820149222736688	-0.2447695189207213	0.7118874547234166	-1.885406096556573	-1.88540609655652	0.3682247006049678	-6.787431533578537e-06	-0.6264983041006916	-0.1797145933315858	-0.07731739985693981	-0.02258479870727587	0.008235837920320278	-0.3239116500711772	0.06774938410529877	-0.008895348686188352	0.1280342877166077	-33.03780529428565	-19.27908136000574	-3.330480730034065	-3.473392409197024	1.872885464994313	-652.1406244848599	60.40278316524783	0.1306437775298019	0.3168135925386528	-0.5879739059969311	-0.6561654849232722	-0.0898993738808125	-0.7525069540359746	1.203937807468081	-0.8217734265925857	-0.8217734265907494	0.2943427622996186	0.03937504697158382	-0.4310818658759441	-0.07759663207024772	4.523127071825011e-08	-3.240965229594415e-07	-2.436017104318441e-06	-2.53082777647881e-06	4.707862490505177e-07	-3.44810817310546e-07	-2.228255088373303e-07
1.52	-0.1320344376363721	0.0509882638688823	0.8665921532440286	0.7101619397200635	-0.2202194902895543	-0.1523980229757965	-0.2677015696917521	0.6506895571562393	0.6506895571563811	0.02115412316749803	0.174530689037789	0.2455973790727873	0.06477928027120783	0.3107050470199266	0.1547646135515995	0.3677982130870429	-1.675846904488344	0.003877600992134696	-0.251805160187679	0.7235713416852122	-1.892816625008192	-1.892816625008127	0.3714549852440027	5.486348540520661e-05	-0.6305452484845355	-0.1804709738206572	-0.07123425834497137	-0.02386842624971995	0.007452413109442568	-0.320504635740001	0.07147803332187382	-0.009781232244640746	0.1224663865127765	-34.05617256526826	-17.94536140834623	-3.389509948538943	-3.569278036706232	1.412310245163928	-648.7563983742891	60.17335308135038	0.1102779680919868	0.3026412066012488	-0.6327718234150673	-0.5296683980446942	-0.1049781852885101	-0.6020931758411854	1.129926981903537	-0.6604786757788703	-0.660478675778873	0.39285788652518	-0.06326927499071099	-0.3802580846729379	-0.08376654939196007	5.516439654762725e-08	-2.698768595634306e-07	-2.213337105182296e-06	-2.090155182071085e-06	4.144226980896913e-07	-2.951311559224772e-07	-2.467377498575458e-07
1.53	-0.1289225274517702	0.05255074841621215	0.87023771751943	0.6933796410434703	-0.2201857598555773	-0.1549491721843346	-0.2604102706677603	0.6317311724045157	0.631731172404562	0.02488611016877806	0.1745304975165389	0.239273892862158	0.06297101367733049	0.3116282577429239	0.1577007123451463	0.3612425689866823	-1.680362461024087	0.002894012971565222	-0.2584899088734307	0.7345737103333647	-1.898575272937836	-1.898575272937779	0.37484010063547	-4.660806605372223e-05	-0.6340510695778806	-0.1811175915229452	-0.06526034670832019	-0.02496865328050963	0.00653865735299241	-0.3167939084074891	0.07475659965764045	-0.01060342016019126	0.1169741165024333	-35.03846008003549	-16.7622611035656	-3.44203510363233	-3.672157413539276	1.08879564681373	-645.490864875887	59.94443839256992	0.07602865659593402	0.2844035256563471	-0.6777878088883662	-0.3749522619583556	-0.09148257248367844	-0.7114287287984885	1.068178889408267	-0.4908169875855725	-0.4908169875867561	0.2957172237941189	0.02327055526376455	-0.320559395535608	-0.04572290358240475	7.458306678465593e-08	-1.535121235101641e-07	-1.802509566568514e-06	-1.157400593394772e-06	2.970582905755024e-07	-1.555161851406969e-07	-4.076813206657412e-07
1.54	-0.1258028479535002	0.05414165581346242	0.8738155599327194	0.6765596962053944	-0.2201611519942175	-0.157569121482499	-0.2530123905406598	0.612723749346291	0.6127237493462403	0.02864882409563642	0.1745306626098683	0.2329183853858211	0.06115815820184318	0.3122589097536148	0.160449183535686	0.3542538406646229	-1.683376136784602	0.002053086469294403	-0.2655651781134366	0.7448875623070031	-1.902624286308618	-1.902624286308569	0.3776003703604003	0.0001261864019772734	-0.6369495016260387	-0.1813887501426399	-0.05928643507167529	-0.02606888031129175	0.005624901596518382	-0.3130831810749789	0.07803516599340958	-0.0114256080757298	0.1114818464920837	-35.97944834780585	-15.58928255762945	-3.49509726451224	-3.776361104803631	0.7803417337140183	-642.3845776252252	59.73360605456397	0.05176622563073494	0.2651156859997962	-0.7193886677548117	-0.2292922429990469	-0.0764458816287797	-0.6801972866920328	0.9922236470007431	-0.3185517640066015	-0.3185517640066008	0.2678887532177655	-0.00841607109272402	-0.2587802756355753	-0.008674732873294179	9.93871146816148e-08	-5.365445144076779e-09	-1.316514085709054e-06	3.271370814316263e-08	1.514626195473296e-07	3.703191016184482e-08	-6.968790665886622e-07
